<?xml version="1.0" standalone="no"?>
<!DOCTYPE svg PUBLIC "-//W3C//DTD SVG 20010904//EN"
 "http://www.w3.org/TR/2001/REC-SVG-20010904/DTD/svg10.dtd">
<svg version="1.0" xmlns="http://www.w3.org/2000/svg"
 width="2661.000000pt" height="688.000000pt" viewBox="0 0 2661.000000 688.000000"
 preserveAspectRatio="xMidYMid meet">

<g transform="translate(0.000000,688.000000) scale(0.100000,-0.100000)"
fill="#000000" stroke="none">
<path d="M916 6870 c-438 -70 -775 -376 -887 -806 -19 -74 -23 -115 -23 -239
-1 -90 5 -174 13 -210 123 -549 600 -898 1156 -846 225 21 402 -18 568 -125
79 -52 385 -347 477 -461 107 -132 168 -294 172 -457 2 -45 -1 -142 -6 -216
-13 -201 18 -358 105 -534 194 -393 623 -634 1047 -588 307 34 563 177 744
416 271 358 284 844 34 1220 -104 156 -266 295 -439 376 -176 82 -345 110
-561 90 -249 -21 -414 19 -591 145 -86 61 -444 427 -493 504 -56 86 -99 201
-119 318 -13 82 -14 118 -5 237 15 207 -5 362 -69 519 -130 322 -401 555 -740
637 -97 23 -295 34 -383 20z"/>
<path d="M3312 6870 c-173 -31 -309 -104 -437 -234 -75 -75 -99 -107 -138
-186 -70 -141 -90 -233 -85 -394 4 -114 8 -142 35 -218 84 -240 279 -429 523
-506 99 -31 103 -31 290 -42 198 -12 371 -43 525 -95 618 -207 1094 -740 1224
-1371 91 -444 24 -879 -194 -1265 -253 -447 -692 -783 -1188 -910 -209 -53
-179 -52 -1018 -56 -690 -4 -794 -2 -854 12 -171 39 -307 159 -377 334 l-23
56 -5 785 -6 785 -27 90 c-52 166 -132 289 -260 396 -255 214 -637 239 -917
61 -183 -117 -317 -312 -361 -529 -19 -91 -20 -137 -17 -1141 3 -1045 3 -1047
26 -1155 69 -327 208 -585 441 -818 268 -268 586 -419 963 -459 127 -13 2012
-13 2193 0 484 36 904 151 1335 366 469 235 855 546 1175 949 830 1043 975
2460 376 3655 -176 349 -361 603 -655 895 -244 243 -454 403 -739 564 -387
219 -831 364 -1277 415 -169 20 -458 28 -528 16z"/>
<path d="M13995 4283 c-207 -33 -400 -142 -519 -293 -136 -173 -197 -383 -175
-605 12 -124 31 -194 86 -305 39 -80 60 -108 137 -185 106 -105 171 -146 304
-191 172 -59 387 -64 571 -14 96 26 258 104 339 164 l62 46 0 345 0 345 -340
0 -340 0 0 -150 0 -150 175 0 175 0 0 -110 0 -110 -37 -24 c-57 -37 -152 -65
-246 -72 -302 -23 -526 190 -527 501 0 226 145 427 345 479 152 40 334 0 471
-104 l52 -39 104 125 c56 69 103 130 103 137 0 37 -211 154 -340 188 -79 21
-325 34 -400 22z"/>
<path d="M17310 4271 c-309 -70 -536 -281 -622 -578 -33 -113 -33 -333 0 -447
65 -224 218 -406 426 -506 234 -112 523 -114 755 -4 220 103 376 287 443 521
32 113 32 324 0 437 -81 281 -286 484 -574 567 -108 31 -314 35 -428 10z m303
-316 c221 -58 359 -243 359 -485 1 -169 -65 -309 -190 -402 -90 -68 -172 -91
-305 -86 -93 3 -109 7 -180 41 -138 67 -229 185 -262 342 -8 39 -15 88 -15
110 0 120 58 269 137 351 115 120 295 171 456 129z"/>
<path d="M25016 4253 c-18 -37 -666 -1561 -666 -1568 0 -3 79 -4 176 -3 l177
3 71 175 71 175 335 0 335 0 72 -175 72 -175 180 -3 c100 -1 181 0 181 3 0 7
-648 1531 -666 1568 l-15 27 -154 0 -154 0 -15 -27z m374 -910 c0 -2 -95 -3
-211 -3 -165 0 -210 3 -206 13 3 6 49 117 101 246 53 129 99 239 103 244 4 7
213 -483 213 -500z"/>
<path d="M7810 3471 l0 -791 343 0 c244 0 366 4 427 14 335 55 573 261 662
573 32 112 31 305 0 417 -77 269 -272 462 -553 547 -70 22 -94 23 -476 27
l-403 3 0 -790z m721 469 c168 -31 311 -163 353 -325 18 -67 21 -208 5 -274
-27 -117 -109 -227 -210 -280 -97 -53 -144 -61 -341 -61 l-178 0 0 475 0 475
159 0 c87 0 183 -4 212 -10z"/>
<path d="M9560 3470 l0 -790 170 0 170 0 2 253 3 252 136 3 136 3 169 -255
169 -256 203 0 c111 0 202 1 202 3 0 2 -86 129 -190 282 l-190 279 67 35 c126
66 221 185 254 321 16 66 16 216 0 284 -42 177 -178 305 -379 357 -68 17 -113
19 -499 19 l-423 0 0 -790z m835 457 c85 -38 124 -103 125 -205 0 -77 -19
-121 -71 -166 -59 -50 -93 -56 -333 -56 l-216 0 0 226 0 226 228 -4 c191 -3
233 -6 267 -21z"/>
<path d="M11256 3781 l304 -480 0 -310 0 -311 175 0 175 0 0 319 0 320 284
445 c157 245 292 457 302 471 l16 25 -198 0 -199 0 -190 -314 c-104 -173 -192
-313 -194 -310 -2 2 -87 142 -187 312 l-182 307 -205 3 -206 2 305 -479z"/>
<path d="M15120 3470 l0 -790 170 0 170 0 2 253 3 252 136 3 136 3 169 -255
169 -256 204 0 203 0 -17 28 c-10 15 -96 141 -192 281 -96 139 -172 255 -171
256 2 1 32 17 68 36 121 63 205 167 246 304 20 69 23 222 5 299 -31 133 -127
252 -253 311 -128 61 -164 65 -630 65 l-418 0 0 -790z m789 469 c107 -23 170
-101 171 -212 0 -100 -38 -162 -125 -203 -48 -23 -60 -24 -272 -24 l-223 0 0
225 0 225 200 0 c109 0 222 -5 249 -11z"/>
<path d="M18603 3738 c3 -430 7 -535 19 -588 58 -238 190 -388 400 -456 113
-36 322 -45 448 -20 254 52 407 190 481 436 22 73 23 88 27 613 l3 537 -175 0
-175 0 -3 -522 -3 -523 -26 -56 c-55 -117 -139 -170 -280 -177 -106 -5 -177
13 -242 63 -55 42 -103 131 -117 220 -5 33 -10 269 -10 528 l0 467 -176 0
-175 0 4 -522z"/>
<path d="M20320 3470 l0 -790 170 0 170 0 2 500 3 500 380 -500 380 -499 148
-1 147 0 0 790 0 790 -170 0 -170 0 0 -482 c0 -420 -2 -480 -14 -468 -8 8
-174 224 -369 480 l-354 465 -161 3 -162 2 0 -790z"/>
<path d="M22080 3471 l0 -791 343 0 c442 0 531 13 706 105 189 99 323 267 382
480 33 114 33 306 1 419 -77 269 -272 462 -553 547 -70 22 -94 23 -476 27
l-403 3 0 -790z m721 469 c168 -31 311 -163 353 -325 18 -67 21 -208 5 -274
-27 -117 -109 -227 -210 -280 -97 -53 -144 -61 -341 -61 l-178 0 0 475 0 475
159 0 c87 0 183 -4 212 -10z"/>
<path d="M26260 3470 l0 -790 175 0 175 0 0 790 0 790 -175 0 -175 0 0 -790z"/>
</g>
</svg>
